<svg t="1697945870556" class="icon" viewBox="0 0 1024 1024" version="1.1"
    xmlns="http://www.w3.org/2000/svg" p-id="3545" width="64" height="64">
    <path
        d="M244.096 0C96.032 0 0 96 0 244v535.936C0 928.032 96.096 1024 244.096 1024h535.904C928.064 1024 1024 928 1024 780V244.064C1024 95.968 928 0 780 0z m83.808 173.984A1001.056 1001.056 0 0 0 298.88 264h195.712c23.264-0.256 18.976 49.824 18.976 49.952h-113.184v7.936c0 54.208-1.728 108-5.152 161.344l0.384-7.264h115.712c16.544 0.992 16.768 53.376 16.768 54.016h-136.288a392.928 392.928 0 0 1-18.208 92.48l0.8-2.784 32.288-25.76c19.296 19.456 64.512 73.056 81.312 92.896 20.192 29.056 2.688 88.8 2.688 88.8l-119.2-144.288c-27.872 107.424-78.72 153.888-78.72 153.888-22.304 19.968-67.424 34.976-112.64 22.016 94.624-73.824 146.784-167.136 156.448-277.216H191.584c0-0.64 8.416-53.024 34.4-54.016h115.616c1.024-13.664 3.68-138.848 3.68-162.016H281.504c-5.792 17.312-6.752 19.072-11.424 32.128-25.344 46.72-68.384 47.872-81.376 49.28 38.656-77.696 60.416-153.6 67.872-173.408 18.144-47.968 71.296-48 71.296-48zM557.984 256h272.096v483.424h-109.792l-93.184 58.592-17.12-58.592h-52z m56.032 52v378.016h26.592l11.232 39.968 62.08-40.032h62.112V307.936z"
        fill="#0084FF" p-id="3546"></path>
</svg>